<svg width="45" height="50" viewBox="0 0 45 50" fill="none" xmlns="http://www.w3.org/2000/svg">
<path fill-rule="evenodd" clip-rule="evenodd" d="M26.6226 7.29405C23.9402 6.1838 21.0382 5.70506 18.1411 5.89478C15.244 6.08455 12.4293 6.9377 9.91494 8.38826L7.37801 9.85184L4.44864 4.78188L6.98556 3.3183C10.2782 1.41876 13.964 0.301488 17.7579 0.0530402C21.5518 -0.195453 25.352 0.431498 28.8646 1.88535C32.3772 3.33924 35.508 5.58103 38.015 8.4374C40.5216 11.2937 42.3374 14.688 43.3216 18.3577C44.3055 22.0274 44.4316 25.8741 43.6898 29.6003C42.948 33.3264 41.3585 36.8321 39.0438 39.8462C36.7292 42.8603 33.752 45.3019 30.3421 46.9821C26.9322 48.6623 22.5339 49.5364 19.3791 49.5364C16.2242 49.5364 14.3821 49.0636 11.9629 48.0625C9.61177 47.0893 7.47549 45.6631 5.67595 43.8649C3.87646 42.0668 2.44905 39.9317 1.47514 37.5824C0.501284 35.2332 0 32.7151 0 30.1722C0 27.6292 0.501284 25.1112 1.47514 22.7618C2.44905 20.4124 3.87646 18.2777 5.67595 16.4796C7.47549 14.6815 9.61177 13.2551 11.9629 12.282C14.3141 11.3088 16.8341 10.8079 19.3789 10.8079C21.9238 10.8079 24.4438 11.3088 26.7949 12.282C29.1461 13.2551 31.2824 14.6815 33.0819 16.4796C34.8814 18.2777 36.3087 20.4124 37.2826 22.7618C37.7017 23.7724 38.033 24.8141 38.275 25.8757C38.3931 23.8605 38.188 21.8336 37.6625 19.8729C36.9108 17.0706 35.5244 14.4786 33.6101 12.2974C31.6958 10.1162 29.3049 8.40425 26.6226 7.29405ZM7.67829 36.9411C8.01057 30.6475 13.223 25.6464 19.6043 25.6464C25.7389 25.6464 30.7932 30.2683 31.4701 36.2174C31.6135 35.9309 31.7469 35.639 31.8699 35.3422C32.5494 33.7031 32.8991 31.9463 32.8991 30.1722C32.8991 28.398 32.5494 26.6413 31.8699 25.0021C31.1905 23.363 30.1946 21.8737 28.9391 20.6192C27.6837 19.3647 26.1932 18.3696 24.5529 17.6906C22.9126 17.0117 21.1544 16.6622 19.3789 16.6622C17.6035 16.6622 15.8453 17.0117 14.205 17.6906C12.5647 18.3696 11.0742 19.3647 9.81872 20.6192C8.56328 21.8737 7.56738 23.363 6.8879 25.0021C6.20847 26.6413 5.85875 28.398 5.85875 30.1722C5.85875 31.9463 6.20847 33.7031 6.8879 35.3422C7.11635 35.8932 7.38049 36.4273 7.67829 36.9411ZM25.6883 37.5801C25.6883 40.9378 22.9644 43.6596 19.6043 43.6596C16.2441 43.6596 13.5202 40.9378 13.5202 37.5801C13.5202 34.2226 16.2441 31.5007 19.6043 31.5007C22.9644 31.5007 25.6883 34.2226 25.6883 37.5801Z" fill="#7C3AED"/>
</svg>
